<?xml version="1.0" standalone="no"?>
<!DOCTYPE svg PUBLIC "-//W3C//DTD SVG 20010904//EN"
 "http://www.w3.org/TR/2001/REC-SVG-20010904/DTD/svg10.dtd">
<svg version="1.0" xmlns="http://www.w3.org/2000/svg"
 width="700.000000pt" height="700.000000pt" viewBox="0 0 700.000000 700.000000"
 preserveAspectRatio="xMidYMid meet">
<metadata>
Created by potrace 1.14, written by Peter Selinger 2001-2017
</metadata>
<g transform="translate(0.000000,700.000000) scale(0.100000,-0.100000)"
fill="#000000" stroke="none">
<path d="M0 3500 l0 -2540 2535 0 2535 0 0 2540 0 2540 -2535 0 -2535 0 0
-2540z m3688 342 l-3 -1387 -34 -69 c-84 -171 -274 -282 -501 -293 -122 -6
-190 5 -278 47 -85 40 -153 106 -187 182 -24 54 -27 69 -23 142 8 135 76 243
210 332 144 96 340 136 491 100 38 -9 70 -16 73 -16 2 0 4 360 4 800 0 567 -3
800 -11 800 -6 0 -330 -58 -719 -130 -390 -71 -712 -130 -715 -130 -3 0 -5
-456 -5 -1014 0 -967 -1 -1017 -19 -1075 -38 -122 -123 -218 -253 -286 -221
-116 -502 -95 -657 50 -74 69 -96 121 -96 225 0 75 4 93 33 154 99 209 395
345 648 297 27 -5 57 -13 67 -16 16 -7 17 53 17 1177 l0 1184 113 18 c61 9
495 79 962 156 468 76 858 139 868 139 16 1 17 -66 15 -1387z"/>
<path d="M5280 4923 l0 -698 75 -58 c136 -105 254 -283 301 -457 26 -93 26
-330 0 -420 -56 -197 -181 -375 -343 -489 l-33 -22 0 -700 c0 -552 3 -699 13
-699 26 0 201 51 294 86 193 72 433 207 593 335 243 192 462 468 601 754 292
603 292 1287 0 1890 -116 239 -248 421 -442 610 -226 220 -463 371 -752 479
-93 35 -268 86 -294 86 -10 0 -13 -146 -13 -697z m1542 -1223 c38 -138 39
-380 3 -555 -20 -95 -83 -295 -93 -295 -4 0 -221 105 -482 234 -328 161 -474
237 -471 247 2 8 6 49 10 93 l6 79 490 133 c270 73 497 132 505 131 9 -1 21
-27 32 -67z"/>
<path d="M5281 3500 l0 -545 70 74 c116 123 189 304 189 471 0 167 -75 353
-190 473 l-69 72 0 -545z"/>
</g>
</svg>
